<svg fill="none" height="144" viewBox="0 0 390 144" width="390" xmlns="http://www.w3.org/2000/svg" xmlns:xlink="http://www.w3.org/1999/xlink"><linearGradient id="a" gradientUnits="userSpaceOnUse" x1="0" x2="134.497" y1=".5" y2=".5"><stop offset="0" stop-color="#17191b" stop-opacity="0"/><stop offset=".895" stop-color="#6e7781"/></linearGradient><g opacity=".6"><g stroke="url(#a)"><path d="m0-.5h134.497" transform="matrix(-.00000004 -1 -1 .00000004 1 134.498)"/><path d="m0-.5h134.497" transform="matrix(-.00000004 -1 -1 .00000004 19.5596 134.498)"/><path d="m0-.5h134.497" transform="matrix(-.00000004 -1 -1 .00000004 38.1201 134.498)"/><path d="m0-.5h134.497" transform="matrix(-.00000004 -1 -1 .00000004 56.6797 134.498)"/><path d="m0-.5h134.497" transform="matrix(-.00000004 -1 -1 .00000004 75.2393 134.498)"/><path d="m0-.5h134.497" transform="matrix(-.00000004 -1 -1 .00000004 93.7988 134.498)"/><path d="m0-.5h134.497" transform="matrix(-.00000004 -1 -1 .00000004 112.359 134.498)"/><path d="m0-.5h134.497" transform="matrix(-.00000004 -1 -1 .00000004 130.919 134.498)"/><path d="m0-.5h134.497" transform="matrix(-.00000004 -1 -1 .00000004 149.479 134.498)"/><path d="m0-.5h134.497" transform="matrix(-.00000004 -1 -1 .00000004 168.038 134.498)"/><path d="m0-.5h134.497" transform="matrix(-.00000004 -1 -1 .00000004 186.599 134.498)"/><path d="m0-.5h134.497" transform="matrix(-.00000004 -1 -1 .00000004 205.158 134.498)"/><path d="m0-.5h134.497" transform="matrix(-.00000004 -1 -1 .00000004 223.718 134.498)"/><path d="m0-.5h134.497" transform="matrix(-.00000004 -1 -1 .00000004 242.277 134.498)"/><path d="m0-.5h134.497" transform="matrix(-.00000004 -1 -1 .00000004 260.838 134.498)"/><path d="m0-.5h134.497" transform="matrix(-.00000004 -1 -1 .00000004 279.397 134.498)"/><path d="m0-.5h134.497" transform="matrix(-.00000004 -1 -1 .00000004 297.957 134.498)"/><path d="m0-.5h134.497" transform="matrix(-.00000004 -1 -1 .00000004 316.518 134.498)"/><path d="m0-.5h134.497" transform="matrix(-.00000004 -1 -1 .00000004 335.077 134.498)"/><path d="m0-.5h134.497" transform="matrix(-.00000004 -1 -1 .00000004 353.637 134.498)"/><path d="m0-.5h134.497" transform="matrix(-.00000004 -1 -1 .00000004 372.196 134.498)"/></g><path d="m0-.5h389.756" opacity=".07" stroke="#6e7781" transform="matrix(1 0 0 -1 1 123.428)"/><path d="m0-.5h389.756" opacity=".07" stroke="#6e7781" transform="matrix(1 0 0 -1 1 102.857)"/><path d="m0-.5h389.756" opacity=".08" stroke="#6e7781" transform="matrix(1 0 0 -1 1 82.2852)"/><path d="m0-.5h389.756" opacity=".1" stroke="#6e7781" transform="matrix(1 0 0 -1 1 61.7148)"/><path d="m0-.5h389.756" opacity=".5" stroke="#6e7781" transform="matrix(1 0 0 -1 1 41.1426)"/><path d="m0-.5h389.756" opacity=".7" stroke="#6e7781" transform="matrix(1 0 0 -1 1 20.5723)"/><path d="m0-.5h389.756" stroke="#6e7781" transform="matrix(1 0 0 -1 1 0)"/></g></svg>